<svg width="29" height="25" viewBox="0 0 29 25" fill="none" xmlns="http://www.w3.org/2000/svg">
<path d="M1.00002 17.4738L14.5 24L28 17.4738M1 12.3985L14.0642 18.7095C14.1961 18.7723 14.3413 18.8049 14.4885 18.8049C14.6357 18.8049 14.7809 18.7723 14.9129 18.7095L27.9885 12.3875M1.75131 7.8252L14.2476 13.8935C14.3262 13.9305 14.4125 13.9498 14.5 13.9498C14.5875 13.9498 14.6738 13.9305 14.7523 13.8935L27.2545 7.8252C27.3244 7.79109 27.3831 7.73901 27.4242 7.67474C27.4652 7.61047 27.4869 7.53652 27.4869 7.4611C27.4869 7.38567 27.4652 7.31173 27.4242 7.24746C27.3831 7.18319 27.3244 7.13111 27.2545 7.097L14.7523 1.05627C14.6738 1.01925 14.5875 1 14.5 1C14.4125 1 14.3262 1.01925 14.2476 1.05627L1.75131 7.12458C1.68835 7.16082 1.63621 7.21214 1.60002 7.27354C1.56384 7.33494 1.54479 7.40431 1.54479 7.47489C1.54479 7.54547 1.56384 7.61484 1.60002 7.67624C1.63621 7.73763 1.68835 7.78896 1.75131 7.8252Z" stroke="#DFF7E2" stroke-width="2" stroke-linecap="round" stroke-linejoin="round"/>
</svg>
