<svg width="33" height="30" viewBox="0 0 33 30" fill="none" xmlns="http://www.w3.org/2000/svg">
<path d="M22.0954 14.3623L13.3112 19.9998C13.1443 20.1069 12.9314 20.1115 12.76 20.0117L1.74648 13.597C1.40524 13.3982 1.39474 12.909 1.72714 12.6958L19.6889 1.17437C19.8558 1.06733 20.0685 1.06273 20.2399 1.16245L31.2532 7.5721C31.5946 7.77076 31.6052 8.26006 31.2728 8.47335L26.0871 11.8007M22.1007 18.8397L13.3111 24.4774C13.1442 24.5844 12.9315 24.589 12.7601 24.4893L1.74634 18.0794C1.4051 17.8808 1.39436 17.3917 1.72654 17.1783L4.66087 15.2933M28.3391 10.3584L31.2529 12.0547C31.5943 12.2534 31.6048 12.7428 31.2723 12.956L26.0391 16.3104M28.5526 14.6959L31.288 16.3911C31.6182 16.5958 31.622 17.075 31.295 17.2848L13.3112 28.8255C13.1443 28.9326 12.9314 28.9372 12.76 28.8374L1.74648 22.4227C1.40524 22.2239 1.39473 21.7347 1.72713 21.5215L4.5488 19.7115M14.2845 4.98352L25.7766 11.6748C25.9391 11.7694 26.0391 11.9433 26.0391 12.1313V20.3647C26.0391 20.5445 25.9476 20.712 25.7963 20.8092L22.9145 22.66C22.5629 22.8858 22.1007 22.6333 22.1007 22.2154V14.6659C22.1007 14.4779 22.0008 14.3041 21.8384 14.2094L10.8126 7.78474C10.4715 7.58601 10.4609 7.09706 10.7931 6.88376L13.7332 4.99554C13.9001 4.88833 14.113 4.88369 14.2845 4.98352Z" stroke="#093030" stroke-width="2.11321" stroke-linecap="round" stroke-linejoin="round"/>
</svg>
