<svg width="51" height="44" viewBox="0 0 51 44" fill="none" xmlns="http://www.w3.org/2000/svg">
<g clip-path="url(#clip0_9173_2518)">
<path d="M20.9 31.5908H30.9C31.8195 31.5881 32.7005 31.2217 33.3507 30.5715C34.0009 29.9214 34.3673 29.0403 34.37 28.1208C34.3647 27.203 33.9972 26.3245 33.3473 25.6765C32.6974 25.0285 31.8178 24.6634 30.9 24.6608H24.5599C23.1372 24.644 21.725 24.4148 20.37 23.9808C17.86 23.4408 13.8 23.4108 11.94 28.1208H7.94003M34.3199 28.1208L43.3199 22.8208C44.1053 22.3449 45.0476 22.1998 45.9398 22.4172C46.832 22.6347 47.6015 23.1969 48.0799 23.9808C48.554 24.7656 48.6993 25.706 48.484 26.5973C48.2686 27.4886 47.7102 28.2589 46.93 28.7408L35.16 37.6007C33.0617 39.1799 30.5062 40.0329 27.88 40.0307H7.87997M30.9801 12.4308L28.5299 14.8908C28.515 14.9062 28.4971 14.9185 28.4774 14.9269C28.4576 14.9353 28.4363 14.9395 28.4149 14.9395C28.3934 14.9395 28.3724 14.9353 28.3526 14.9269C28.3329 14.9185 28.3148 14.9062 28.2999 14.8908L26.7899 12.4208H20.19C19.6096 13.9309 18.5849 15.2296 17.2513 16.1454C15.9177 17.0613 14.3379 17.5513 12.7201 17.5508C10.5983 17.5508 8.56337 16.7079 7.06308 15.2076C5.56279 13.7074 4.72006 11.6725 4.72006 9.55078C4.72006 7.42905 5.56279 5.39421 7.06308 3.89392C8.56337 2.39363 10.5983 1.55078 12.7201 1.55078C14.3367 1.54949 15.9156 2.03805 17.2491 2.95203C18.5826 3.86601 19.608 5.16253 20.19 6.67078H34.9L38.66 9.86078L33.66 15.0308L30.9801 12.4808M7.89999 26.3508C7.89999 26.2076 7.84306 26.0702 7.74179 25.9689C7.64052 25.8677 7.50317 25.8108 7.35995 25.8108H2.08994C1.94672 25.8108 1.80937 25.8677 1.7081 25.9689C1.60683 26.0702 1.5499 26.2076 1.5499 26.3508V41.7808C1.5499 41.924 1.60683 42.0613 1.7081 42.1626C1.80937 42.2639 1.94672 42.3208 2.08994 42.3208H7.35995C7.50317 42.3208 7.64052 42.2639 7.74179 42.1626C7.84306 42.0613 7.89999 41.924 7.89999 41.7808V26.3508Z" stroke="#F1FFF3" stroke-width="3" stroke-linecap="round" stroke-linejoin="round"/>
<path d="M10.57 11.2009C11.7629 11.2009 12.73 10.2338 12.73 9.04086C12.73 7.84792 11.7629 6.88086 10.57 6.88086C9.37704 6.88086 8.40997 7.84792 8.40997 9.04086C8.40997 10.2338 9.37704 11.2009 10.57 11.2009Z" fill="#F1FFF3"/>
</g>
<defs>
<clipPath id="clip0_9173_2518">
<rect width="50.09" height="43.82" fill="white"/>
</clipPath>
</defs>
</svg>
